<mxfile host="65bd71144e">
    <diagram name="Page-1" id="58cdce13-f638-feb5-8d6f-7d28b1aa9fa0">
        <mxGraphModel dx="960" dy="633" grid="1" gridSize="10" guides="1" tooltips="1" connect="1" arrows="1" fold="1" page="1" pageScale="1" pageWidth="1100" pageHeight="850" background="none" math="0" shadow="0">
            <root>
                <mxCell id="0"/>
                <mxCell id="1" parent="0"/>
                <mxCell id="382b91b5511bd0f7-1" value="" style="ellipse;html=1;shape=startState;fillColor=#000000;strokeColor=#333333;rounded=1;shadow=0;comic=0;labelBackgroundColor=none;fontFamily=Verdana;fontSize=12;fontColor=#000000;align=center;direction=south;" parent="1" vertex="1">
                    <mxGeometry x="100" y="135" width="30" height="30" as="geometry"/>
                </mxCell>
                <mxCell id="GW1q7XcM0TQdHOViL6Cg-6" style="edgeStyle=orthogonalEdgeStyle;rounded=0;orthogonalLoop=1;jettySize=auto;html=1;entryX=0.5;entryY=0;entryDx=0;entryDy=0;" parent="1" source="382b91b5511bd0f7-5" target="382b91b5511bd0f7-10" edge="1">
                    <mxGeometry relative="1" as="geometry"/>
                </mxCell>
                <mxCell id="GW1q7XcM0TQdHOViL6Cg-7" value="End auction" style="edgeLabel;html=1;align=center;verticalAlign=middle;resizable=0;points=[];" parent="GW1q7XcM0TQdHOViL6Cg-6" vertex="1" connectable="0">
                    <mxGeometry x="-0.1365" y="2" relative="1" as="geometry">
                        <mxPoint as="offset"/>
                    </mxGeometry>
                </mxCell>
                <mxCell id="382b91b5511bd0f7-5" value="Auction in progress" style="rounded=1;whiteSpace=wrap;html=1;arcSize=24;fillColor=#ffffc0;strokeColor=#333333;shadow=0;comic=0;labelBackgroundColor=none;fontFamily=Verdana;fontSize=12;fontColor=#000000;align=center;" parent="1" vertex="1">
                    <mxGeometry x="460" y="240" width="120" height="60" as="geometry"/>
                </mxCell>
                <mxCell id="382b91b5511bd0f7-6" value="NFT transfer pending" style="rounded=1;whiteSpace=wrap;html=1;arcSize=24;fillColor=#ffffc0;strokeColor=#333333;shadow=0;comic=0;labelBackgroundColor=none;fontFamily=Verdana;fontSize=12;fontColor=#000000;align=center;" parent="1" vertex="1">
                    <mxGeometry x="240" y="120" width="120" height="60" as="geometry"/>
                </mxCell>
                <mxCell id="382b91b5511bd0f7-7" value="Auction ready" style="rounded=1;whiteSpace=wrap;html=1;arcSize=24;fillColor=#ffffc0;strokeColor=#333333;shadow=0;comic=0;labelBackgroundColor=none;fontFamily=Verdana;fontSize=12;fontColor=#000000;align=center;" parent="1" vertex="1">
                    <mxGeometry x="460" y="120" width="120" height="60" as="geometry"/>
                </mxCell>
                <mxCell id="382b91b5511bd0f7-10" value="Winner determined" style="rounded=1;whiteSpace=wrap;html=1;arcSize=24;fillColor=#ffffc0;strokeColor=#333333;shadow=0;comic=0;labelBackgroundColor=none;fontFamily=Verdana;fontSize=12;fontColor=#000000;align=center;" parent="1" vertex="1">
                    <mxGeometry x="460" y="350" width="120" height="60" as="geometry"/>
                </mxCell>
                <mxCell id="2a3bc250acf0617d-9" style="edgeStyle=orthogonalEdgeStyle;html=1;labelBackgroundColor=none;endArrow=open;endSize=8;strokeColor=#333333;fontFamily=Verdana;fontSize=12;align=left;" parent="1" source="382b91b5511bd0f7-1" target="382b91b5511bd0f7-6" edge="1">
                    <mxGeometry relative="1" as="geometry"/>
                </mxCell>
                <mxCell id="GW1q7XcM0TQdHOViL6Cg-1" value="Setup Auction" style="edgeLabel;html=1;align=center;verticalAlign=middle;resizable=0;points=[];" parent="2a3bc250acf0617d-9" vertex="1" connectable="0">
                    <mxGeometry x="-0.2917" y="1" relative="1" as="geometry">
                        <mxPoint x="11" y="1" as="offset"/>
                    </mxGeometry>
                </mxCell>
                <mxCell id="2a3bc250acf0617d-10" style="html=1;labelBackgroundColor=none;endArrow=open;strokeColor=#333333;fontFamily=Verdana;fontSize=12;align=left;entryX=0;entryY=0.5;exitX=1;exitY=0.5;exitDx=0;exitDy=0;rounded=0;" parent="1" source="382b91b5511bd0f7-6" target="382b91b5511bd0f7-7" edge="1">
                    <mxGeometry relative="1" as="geometry"/>
                </mxCell>
                <mxCell id="GW1q7XcM0TQdHOViL6Cg-2" value="Transfer NFT" style="edgeLabel;html=1;align=center;verticalAlign=middle;resizable=0;points=[];" parent="2a3bc250acf0617d-10" vertex="1" connectable="0">
                    <mxGeometry x="-0.0792" y="4" relative="1" as="geometry">
                        <mxPoint x="4" y="4" as="offset"/>
                    </mxGeometry>
                </mxCell>
                <mxCell id="2a3bc250acf0617d-11" style="html=1;labelBackgroundColor=none;endArrow=open;endSize=8;strokeColor=#333333;fontFamily=Verdana;fontSize=12;align=left;exitX=0.5;exitY=1;entryX=0.5;entryY=0;entryDx=0;entryDy=0;" parent="1" source="382b91b5511bd0f7-7" target="382b91b5511bd0f7-5" edge="1">
                    <mxGeometry relative="1" as="geometry">
                        <mxPoint x="520" y="300" as="sourcePoint"/>
                        <mxPoint x="340" y="320" as="targetPoint"/>
                    </mxGeometry>
                </mxCell>
                <mxCell id="GW1q7XcM0TQdHOViL6Cg-3" value="Start Auction" style="edgeLabel;html=1;align=center;verticalAlign=middle;resizable=0;points=[];" parent="2a3bc250acf0617d-11" vertex="1" connectable="0">
                    <mxGeometry x="-0.203" relative="1" as="geometry">
                        <mxPoint as="offset"/>
                    </mxGeometry>
                </mxCell>
                <mxCell id="GW1q7XcM0TQdHOViL6Cg-4" style="edgeStyle=orthogonalEdgeStyle;rounded=1;orthogonalLoop=1;jettySize=auto;html=1;curved=0;exitX=1;exitY=0.25;exitDx=0;exitDy=0;entryX=0.992;entryY=0.822;entryDx=0;entryDy=0;entryPerimeter=0;" parent="1" source="382b91b5511bd0f7-5" target="382b91b5511bd0f7-5" edge="1">
                    <mxGeometry relative="1" as="geometry">
                        <mxPoint x="585.3199999999999" y="254.40000000000003" as="sourcePoint"/>
                        <mxPoint x="590" y="280" as="targetPoint"/>
                        <Array as="points">
                            <mxPoint x="657" y="255"/>
                            <mxPoint x="657" y="289"/>
                        </Array>
                    </mxGeometry>
                </mxCell>
                <mxCell id="GW1q7XcM0TQdHOViL6Cg-5" value="Place bids" style="edgeLabel;html=1;align=center;verticalAlign=middle;resizable=0;points=[];" parent="GW1q7XcM0TQdHOViL6Cg-4" vertex="1" connectable="0">
                    <mxGeometry x="0.027" y="1" relative="1" as="geometry">
                        <mxPoint y="-4" as="offset"/>
                    </mxGeometry>
                </mxCell>
                <mxCell id="GW1q7XcM0TQdHOViL6Cg-10" style="rounded=1;orthogonalLoop=1;jettySize=auto;html=1;exitX=1;exitY=0.5;exitDx=0;exitDy=0;entryX=0;entryY=0.5;entryDx=0;entryDy=0;" parent="1" source="382b91b5511bd0f7-10" edge="1" target="2">
                    <mxGeometry relative="1" as="geometry">
                        <mxPoint x="581" y="363" as="sourcePoint"/>
                        <mxPoint x="580" y="397" as="targetPoint"/>
                    </mxGeometry>
                </mxCell>
                <mxCell id="GW1q7XcM0TQdHOViL6Cg-11" value="Claim valuables" style="edgeLabel;html=1;align=center;verticalAlign=middle;resizable=0;points=[];" parent="GW1q7XcM0TQdHOViL6Cg-10" vertex="1" connectable="0">
                    <mxGeometry x="0.027" y="1" relative="1" as="geometry">
                        <mxPoint x="-7" y="-4" as="offset"/>
                    </mxGeometry>
                </mxCell>
                <mxCell id="2" value="Processing results" style="rounded=1;whiteSpace=wrap;html=1;arcSize=24;fillColor=#ffffc0;strokeColor=#333333;shadow=0;comic=0;labelBackgroundColor=none;fontFamily=Verdana;fontSize=12;fontColor=#000000;align=center;" vertex="1" parent="1">
                    <mxGeometry x="710" y="350" width="120" height="60" as="geometry"/>
                </mxCell>
                <mxCell id="5" value="" style="ellipse;html=1;shape=endState;fillColor=strokeColor;" vertex="1" parent="1">
                    <mxGeometry x="890" y="365" width="30" height="30" as="geometry"/>
                </mxCell>
                <mxCell id="6" style="edgeStyle=none;html=1;entryX=0;entryY=0.5;entryDx=0;entryDy=0;" edge="1" parent="1" source="2" target="5">
                    <mxGeometry relative="1" as="geometry">
                        <mxPoint x="860" y="381" as="targetPoint"/>
                    </mxGeometry>
                </mxCell>
            </root>
        </mxGraphModel>
    </diagram>
</mxfile>